<svg width="36" height="35" viewBox="0 0 36 35" fill="none" xmlns="http://www.w3.org/2000/svg">
<path d="M23.768 27.375H8.38134V30.125H23.768V27.375Z" stroke="#E1A067" stroke-width="1.5" stroke-miterlimit="10" stroke-linecap="round" stroke-linejoin="round"/>
<path d="M14.8863 27L9.88248 19.375" stroke="#E1A067" stroke-width="1.5" stroke-miterlimit="10" stroke-linecap="round" stroke-linejoin="round"/>
<path d="M8.88173 19C9.77987 19 10.5079 18.2725 10.5079 17.375C10.5079 16.4775 9.77987 15.75 8.88173 15.75C7.98358 15.75 7.25549 16.4775 7.25549 17.375C7.25549 18.2725 7.98358 19 8.88173 19Z" stroke="#E1A067" stroke-width="1.5" stroke-miterlimit="10" stroke-linecap="round" stroke-linejoin="round"/>
<path d="M16.0121 8.62503L10.3829 15.75" stroke="#E1A067" stroke-width="1.5" stroke-miterlimit="10" stroke-linecap="round" stroke-linejoin="round"/>
<path d="M24.8938 11.25C25.7695 12.125 25.7695 13.375 24.8938 14.25C24.0182 15.125 22.7672 15.125 21.8916 14.25" stroke="#E1A067" stroke-width="1.5" stroke-miterlimit="10" stroke-linecap="round" stroke-linejoin="round"/>
<path d="M18.514 16.875C16.1372 14.25 16.2623 10.25 18.8893 7.87502C21.5163 5.50002 25.5193 5.62502 27.8961 8.25002L18.514 16.875Z" stroke="#E1A067" stroke-width="1.5" stroke-miterlimit="10" stroke-linecap="round" stroke-linejoin="round"/>
<path d="M17.0129 9.375L15.7619 7.875C15.1365 7.125 15.1364 6 15.887 5.25C16.6376 4.625 17.7634 4.625 18.514 5.375L19.765 6.875" stroke="#E1A067" stroke-width="1.5" stroke-miterlimit="10" stroke-linecap="round" stroke-linejoin="round"/>
</svg>
