<svg width="35" height="35" viewBox="0 0 35 35" fill="none" xmlns="http://www.w3.org/2000/svg">
<path d="M1.625 8.25H33.375" stroke="#E1A067" stroke-width="1.5" stroke-miterlimit="10" stroke-linecap="round" stroke-linejoin="round"/>
<path d="M4 8.625V26.75" stroke="#E1A067" stroke-width="1.5" stroke-miterlimit="10" stroke-linecap="round" stroke-linejoin="round"/>
<path d="M31 8.625V26.75" stroke="#E1A067" stroke-width="1.5" stroke-miterlimit="10" stroke-linecap="round" stroke-linejoin="round"/>
<path d="M20 8.25V23H31" stroke="#E1A067" stroke-width="1.5" stroke-miterlimit="10" stroke-linecap="round" stroke-linejoin="round"/>
<path d="M20.75 15.625H31" stroke="#E1A067" stroke-width="1.5" stroke-miterlimit="10" stroke-linecap="round" stroke-linejoin="round"/>
<path d="M4 10.875H20" stroke="#E1A067" stroke-width="1.5" stroke-miterlimit="10" stroke-linecap="round" stroke-linejoin="round"/>
<path d="M25 13C25.5523 13 26 12.5523 26 12C26 11.4477 25.5523 11 25 11C24.4477 11 24 11.4477 24 12C24 12.5523 24.4477 13 25 13Z" fill="#E1A067"/>
<path d="M25 20C25.5523 20 26 19.5523 26 19C26 18.4477 25.5523 18 25 18C24.4477 18 24 18.4477 24 19C24 19.5523 24.4477 20 25 20Z" fill="#E1A067"/>
</svg>
